<svg xmlns="http://www.w3.org/2000/svg" width="1080" height="1440" viewBox="0 0 1080 1440"><defs><linearGradient id="bg" x1="0" y1="0" x2="1" y2="1"><stop stop-color="#0b1813"/><stop offset="1" stop-color="#153c2b"/></linearGradient></defs><rect width="1080" height="1440" rx="40" fill="url(#bg)"/><circle cx="1010" cy="80" r="180" fill="#73d69f" opacity=".10"/><text x="64" y="72" text-anchor="start" font-family="Noto Sans CJK SC,Noto Sans SC,PingFang SC,Microsoft YaHei,sans-serif" font-size="30px" font-weight="760" fill="#f4f7f2"><tspan x="64" dy="0px">GITHUB 趋势雷达</tspan><tspan x="64" dy="42px">一图看懂今日开源趋势</tspan></text><text x="64" y="165" text-anchor="start" font-family="Noto Sans CJK SC,Noto Sans SC,PingFang SC,Microsoft YaHei,sans-serif" font-size="18px" font-weight="400" fill="#a9c0b1"><tspan x="64" dy="0px">2026-07-22</tspan></text><rect x="64" y="205" width="952" height="1" fill="#527261"/><text x="64" y="252" text-anchor="start" font-family="Noto Sans CJK SC,Noto Sans SC,PingFang SC,Microsoft YaHei,sans-serif" font-size="23px" font-weight="700" fill="#9fc6ab"><tspan x="64" dy="0px">今日热榜</tspan></text><rect x="64" y="266" width="952" height="110" rx="18" fill="#214f3a" opacity=".9"/><text x="88" y="308" text-anchor="start" font-family="Noto Sans CJK SC,Noto Sans SC,PingFang SC,Microsoft YaHei,sans-serif" font-size="36px" font-weight="760" fill="#82e4ad"><tspan x="88" dy="0px">01</tspan></text><text x="170" y="300" text-anchor="start" font-family="Noto Sans CJK SC,Noto Sans SC,PingFang SC,Microsoft YaHei,sans-serif" font-size="22px" font-weight="700" fill="#f4f7f2"><tspan x="170" dy="0px">koala73/worldmonitor</tspan></text><text x="170" y="342" text-anchor="start" font-family="Noto Sans CJK SC,Noto Sans SC,PingFang SC,Microsoft YaHei,sans-serif" font-size="15px" font-weight="400" fill="#b9d0c1"><tspan x="170" dy="0px">该项目是一个实时全球情报仪表盘，通过AI整合新闻聚合、地缘政治监控和基础设施跟踪，提供统一的态势…</tspan></text><text x="980" y="302" text-anchor="end" font-family="Noto Sans CJK SC,Noto Sans SC,PingFang SC,Microsoft YaHei,sans-serif" font-size="13px" font-weight="400" fill="#a9c0b1"><tspan x="980" dy="0px">★ 66,116  ·  TypeScript</tspan></text><rect x="64" y="386" width="952" height="110" rx="18" fill="#214f3a" opacity=".9"/><text x="88" y="428" text-anchor="start" font-family="Noto Sans CJK SC,Noto Sans SC,PingFang SC,Microsoft YaHei,sans-serif" font-size="36px" font-weight="760" fill="#82e4ad"><tspan x="88" dy="0px">02</tspan></text><text x="170" y="420" text-anchor="start" font-family="Noto Sans CJK SC,Noto Sans SC,PingFang SC,Microsoft YaHei,sans-serif" font-size="22px" font-weight="700" fill="#f4f7f2"><tspan x="170" dy="0px">bojieli/ai-agent-book</tspan></text><text x="170" y="462" text-anchor="start" font-family="Noto Sans CJK SC,Noto Sans SC,PingFang SC,Microsoft YaHei,sans-serif" font-size="15px" font-weight="400" fill="#b9d0c1"><tspan x="170" dy="0px">该项目提供《深入理解 AI Agent：设计原理与工程实践》一书的全文、编译版 PDF…</tspan></text><text x="980" y="422" text-anchor="end" font-family="Noto Sans CJK SC,Noto Sans SC,PingFang SC,Microsoft YaHei,sans-serif" font-size="13px" font-weight="400" fill="#a9c0b1"><tspan x="980" dy="0px">★ 15,453  ·  Python</tspan></text><rect x="64" y="506" width="952" height="110" rx="18" fill="#214f3a" opacity=".9"/><text x="88" y="548" text-anchor="start" font-family="Noto Sans CJK SC,Noto Sans SC,PingFang SC,Microsoft YaHei,sans-serif" font-size="36px" font-weight="760" fill="#82e4ad"><tspan x="88" dy="0px">03</tspan></text><text x="170" y="540" text-anchor="start" font-family="Noto Sans CJK SC,Noto Sans SC,PingFang SC,Microsoft YaHei,sans-serif" font-size="22px" font-weight="700" fill="#f4f7f2"><tspan x="170" dy="0px">tirth8205/code-review-graph</tspan></text><text x="170" y="582" text-anchor="start" font-family="Noto Sans CJK SC,Noto Sans SC,PingFang SC,Microsoft YaHei,sans-serif" font-size="15px" font-weight="400" fill="#b9d0c1"><tspan x="170" dy="0px">这个项目是一个本地优先的代码智能图工具，通过构建代码库的持久映射，帮助AI编码工具仅读取相关代码…</tspan></text><text x="980" y="542" text-anchor="end" font-family="Noto Sans CJK SC,Noto Sans SC,PingFang SC,Microsoft YaHei,sans-serif" font-size="13px" font-weight="400" fill="#a9c0b1"><tspan x="980" dy="0px">★ 24,757  ·  Python</tspan></text><rect x="64" y="626" width="952" height="110" rx="18" fill="#214f3a" opacity=".9"/><text x="88" y="668" text-anchor="start" font-family="Noto Sans CJK SC,Noto Sans SC,PingFang SC,Microsoft YaHei,sans-serif" font-size="36px" font-weight="760" fill="#82e4ad"><tspan x="88" dy="0px">04</tspan></text><text x="170" y="660" text-anchor="start" font-family="Noto Sans CJK SC,Noto Sans SC,PingFang SC,Microsoft YaHei,sans-serif" font-size="22px" font-weight="700" fill="#f4f7f2"><tspan x="170" dy="0px">ayghri/i-have-adhd</tspan></text><text x="170" y="702" text-anchor="start" font-family="Noto Sans CJK SC,Noto Sans SC,PingFang SC,Microsoft YaHei,sans-serif" font-size="15px" font-weight="400" fill="#b9d0c1"><tspan x="170" dy="0px">该项目为编程助手提供了一种技能，使其能够输出简洁直接的答案，避免冗长解释，适合注意力不易集中的人…</tspan></text><text x="980" y="662" text-anchor="end" font-family="Noto Sans CJK SC,Noto Sans SC,PingFang SC,Microsoft YaHei,sans-serif" font-size="13px" font-weight="400" fill="#a9c0b1"><tspan x="980" dy="0px">★ 7,155  ·  未知</tspan></text><rect x="64" y="746" width="952" height="110" rx="18" fill="#214f3a" opacity=".9"/><text x="88" y="788" text-anchor="start" font-family="Noto Sans CJK SC,Noto Sans SC,PingFang SC,Microsoft YaHei,sans-serif" font-size="36px" font-weight="760" fill="#82e4ad"><tspan x="88" dy="0px">05</tspan></text><text x="170" y="780" text-anchor="start" font-family="Noto Sans CJK SC,Noto Sans SC,PingFang SC,Microsoft YaHei,sans-serif" font-size="22px" font-weight="700" fill="#f4f7f2"><tspan x="170" dy="0px">earthtojake/text-to-cad</tspan></text><text x="170" y="822" text-anchor="start" font-family="Noto Sans CJK SC,Noto Sans SC,PingFang SC,Microsoft YaHei,sans-serif" font-size="15px" font-weight="400" fill="#b9d0c1"><tspan x="170" dy="0px">一个将文本描述转换为CAD模型的代理技能集合，适用于机器人和硬件设计。</tspan></text><text x="980" y="782" text-anchor="end" font-family="Noto Sans CJK SC,Noto Sans SC,PingFang SC,Microsoft YaHei,sans-serif" font-size="13px" font-weight="400" fill="#a9c0b1"><tspan x="980" dy="0px">★ 9,263  ·  JavaScript</tspan></text><rect x="64" y="906" width="952" height="1" fill="#527261"/><text x="64" y="954" text-anchor="start" font-family="Noto Sans CJK SC,Noto Sans SC,PingFang SC,Microsoft YaHei,sans-serif" font-size="23px" font-weight="700" fill="#9fc6ab"><tspan x="64" dy="0px">AI · 开源 · 开发者资讯</tspan></text><text x="78" y="994" text-anchor="start" font-family="Noto Sans CJK SC,Noto Sans SC,PingFang SC,Microsoft YaHei,sans-serif" font-size="17px" font-weight="600" fill="#f4f7f2"><tspan x="78" dy="0px">[开发工具] 如何使用画布构建交互式体验</tspan></text><text x="980" y="994" text-anchor="end" font-family="Noto Sans CJK SC,Noto Sans SC,PingFang SC,Microsoft YaHei,sans-serif" font-size="12px" font-weight="400" fill="#91aa9b"><tspan x="980" dy="0px">GitHub Blog</tspan></text><text x="78" y="1044" text-anchor="start" font-family="Noto Sans CJK SC,Noto Sans SC,PingFang SC,Microsoft YaHei,sans-serif" font-size="17px" font-weight="600" fill="#f4f7f2"><tspan x="78" dy="0px">[研究] 物理AI仿真的现状概述</tspan></text><text x="980" y="1044" text-anchor="end" font-family="Noto Sans CJK SC,Noto Sans SC,PingFang SC,Microsoft YaHei,sans-serif" font-size="12px" font-weight="400" fill="#91aa9b"><tspan x="980" dy="0px">Hugging Face Blog</tspan></text><text x="78" y="1094" text-anchor="start" font-family="Noto Sans CJK SC,Noto Sans SC,PingFang SC,Microsoft YaHei,sans-serif" font-size="17px" font-weight="600" fill="#f4f7f2"><tspan x="78" dy="0px">[AI 模型] OpenAI 推出小企业 ChatGPT 计划</tspan></text><text x="980" y="1094" text-anchor="end" font-family="Noto Sans CJK SC,Noto Sans SC,PingFang SC,Microsoft YaHei,sans-serif" font-size="12px" font-weight="400" fill="#91aa9b"><tspan x="980" dy="0px">OpenAI News</tspan></text><text x="78" y="1144" text-anchor="start" font-family="Noto Sans CJK SC,Noto Sans SC,PingFang SC,Microsoft YaHei,sans-serif" font-size="17px" font-weight="600" fill="#f4f7f2"><tspan x="78" dy="0px">[云原生] 面向代理型企业的平台工程：管理应用、资源和AI代理</tspan></text><text x="980" y="1144" text-anchor="end" font-family="Noto Sans CJK SC,Noto Sans SC,PingFang SC,Microsoft YaHei,sans-serif" font-size="12px" font-weight="400" fill="#91aa9b"><tspan x="980" dy="0px">CNCF Blog</tspan></text><rect x="64" y="1320" width="952" height="1" fill="#527261"/><text x="64" y="1360" text-anchor="start" font-family="Noto Sans CJK SC,Noto Sans SC,PingFang SC,Microsoft YaHei,sans-serif" font-size="14px" font-weight="650" fill="#82e4ad"><tspan x="64" dy="0px">#画布  #交互体验  #AI工作空间</tspan></text><text x="64" y="1393" text-anchor="start" font-family="Noto Sans CJK SC,Noto Sans SC,PingFang SC,Microsoft YaHei,sans-serif" font-size="13px" font-weight="400" fill="#91aa9b"><tspan x="64" dy="0px">ibook000.github.io/GithubTrending</tspan><tspan x="64" dy="20px">数据来自公开权威来源</tspan></text><g transform="translate(918 1334) scale(2.68966)"><path class="qrline" stroke="#f4f7f2" d="M0 0.5h7m1 0h1m1 0h2m2 0h1m2 0h2m3 0h7m-29 1h1m5 0h1m1 0h2m1 0h2m3 0h4m2 0h1m5 0h1m-29 1h1m1 0h3m1 0h1m1 0h3m2 0h1m1 0h1m2 0h3m1 0h1m1 0h3m1 0h1m-29 1h1m1 0h3m1 0h1m2 0h1m3 0h1m2 0h3m3 0h1m1 0h3m1 0h1m-29 1h1m1 0h3m1 0h1m1 0h4m2 0h1m1 0h1m1 0h2m2 0h1m1 0h3m1 0h1m-29 1h1m5 0h1m2 0h1m1 0h1m2 0h1m1 0h1m5 0h1m5 0h1m-29 1h7m1 0h1m1 0h1m1 0h1m1 0h1m1 0h1m1 0h1m1 0h1m1 0h7m-18 1h5m2 0h3m-21 1h1m2 0h6m5 0h2m1 0h1m3 0h1m2 0h1m1 0h3m-29 1h2m2 0h2m2 0h1m1 0h1m2 0h3m1 0h3m3 0h2m1 0h2m-26 1h3m1 0h1m2 0h1m1 0h1m2 0h2m1 0h2m1 0h3m3 0h1m-27 1h1m1 0h4m1 0h3m1 0h1m2 0h1m2 0h1m2 0h2m3 0h1m2 0h1m-25 1h1m1 0h1m4 0h1m3 0h1m3 0h1m1 0h3m4 0h1m-29 1h1m1 0h1m1 0h2m1 0h1m1 0h1m1 0h1m2 0h1m1 0h3m2 0h8m-27 1h1m2 0h2m1 0h1m2 0h2m1 0h4m1 0h5m2 0h1m1 0h1m-29 1h1m1 0h3m2 0h1m1 0h3m2 0h3m3 0h1m1 0h2m2 0h1m1 0h1m-29 1h2m1 0h1m2 0h1m1 0h1m4 0h1m1 0h1m2 0h4m1 0h1m1 0h1m-26 1h2m2 0h1m2 0h3m1 0h2m2 0h1m2 0h4m2 0h1m1 0h2m-28 1h2m1 0h7m1 0h2m2 0h1m3 0h1m1 0h3m1 0h1m2 0h1m-29 1h3m1 0h1m3 0h2m3 0h1m2 0h1m7 0h3m-27 1h2m2 0h1m1 0h1m2 0h2m4 0h1m3 0h9m-20 1h2m3 0h3m2 0h1m1 0h1m3 0h2m-26 1h7m1 0h2m2 0h2m1 0h1m3 0h2m1 0h1m1 0h2m-26 1h1m5 0h1m1 0h5m1 0h1m1 0h2m1 0h2m3 0h1m-25 1h1m1 0h3m1 0h1m1 0h1m3 0h3m1 0h1m2 0h7m1 0h1m-28 1h1m1 0h3m1 0h1m1 0h1m1 0h2m1 0h7m8 0h1m-29 1h1m1 0h3m1 0h1m4 0h6m1 0h1m1 0h1m2 0h2m1 0h3m-29 1h1m5 0h1m2 0h2m1 0h3m7 0h5m1 0h1m-29 1h7m1 0h3m1 0h1m2 0h2m3 0h2m1 0h1m2 0h1"/></g></svg>