<svg xmlns="http://www.w3.org/2000/svg" width="1080" height="1440" viewBox="0 0 1080 1440"><defs><linearGradient id="bg" x1="0" y1="0" x2="1" y2="1"><stop stop-color="#0b1813"/><stop offset="1" stop-color="#153c2b"/></linearGradient></defs><rect width="1080" height="1440" rx="40" fill="url(#bg)"/><circle cx="1010" cy="80" r="180" fill="#73d69f" opacity=".10"/><text x="64" y="72" text-anchor="start" font-family="Noto Sans CJK SC,Noto Sans SC,PingFang SC,Microsoft YaHei,sans-serif" font-size="30px" font-weight="760" fill="#f4f7f2"><tspan x="64" dy="0px">GITHUB 趋势雷达</tspan><tspan x="64" dy="42px">一图看懂今日开源趋势</tspan></text><text x="64" y="165" text-anchor="start" font-family="Noto Sans CJK SC,Noto Sans SC,PingFang SC,Microsoft YaHei,sans-serif" font-size="18px" font-weight="400" fill="#a9c0b1"><tspan x="64" dy="0px">2026-07-24</tspan></text><rect x="64" y="205" width="952" height="1" fill="#527261"/><text x="64" y="252" text-anchor="start" font-family="Noto Sans CJK SC,Noto Sans SC,PingFang SC,Microsoft YaHei,sans-serif" font-size="23px" font-weight="700" fill="#9fc6ab"><tspan x="64" dy="0px">今日热榜</tspan></text><rect x="64" y="266" width="952" height="110" rx="18" fill="#214f3a" opacity=".9"/><text x="88" y="308" text-anchor="start" font-family="Noto Sans CJK SC,Noto Sans SC,PingFang SC,Microsoft YaHei,sans-serif" font-size="36px" font-weight="760" fill="#82e4ad"><tspan x="88" dy="0px">01</tspan></text><text x="170" y="300" text-anchor="start" font-family="Noto Sans CJK SC,Noto Sans SC,PingFang SC,Microsoft YaHei,sans-serif" font-size="22px" font-weight="700" fill="#f4f7f2"><tspan x="170" dy="0px">block/buzz</tspan></text><text x="170" y="342" text-anchor="start" font-family="Noto Sans CJK SC,Noto Sans SC,PingFang SC,Microsoft YaHei,sans-serif" font-size="15px" font-weight="400" fill="#b9d0c1"><tspan x="170" dy="0px">一个基于蜂群思维理念的集体智能通信平台。</tspan></text><text x="980" y="302" text-anchor="end" font-family="Noto Sans CJK SC,Noto Sans SC,PingFang SC,Microsoft YaHei,sans-serif" font-size="13px" font-weight="400" fill="#a9c0b1"><tspan x="980" dy="0px">★ 7,440  ·  Rust</tspan></text><rect x="64" y="386" width="952" height="110" rx="18" fill="#214f3a" opacity=".9"/><text x="88" y="428" text-anchor="start" font-family="Noto Sans CJK SC,Noto Sans SC,PingFang SC,Microsoft YaHei,sans-serif" font-size="36px" font-weight="760" fill="#82e4ad"><tspan x="88" dy="0px">02</tspan></text><text x="170" y="420" text-anchor="start" font-family="Noto Sans CJK SC,Noto Sans SC,PingFang SC,Microsoft YaHei,sans-serif" font-size="22px" font-weight="700" fill="#f4f7f2"><tspan x="170" dy="0px">koala73/worldmonitor</tspan></text><text x="170" y="462" text-anchor="start" font-family="Noto Sans CJK SC,Noto Sans SC,PingFang SC,Microsoft YaHei,sans-serif" font-size="15px" font-weight="400" fill="#b9d0c1"><tspan x="170" dy="0px">一个整合了AI新闻聚合、地缘政治监控和基础设施追踪的实时全球情报态势感知仪表盘。</tspan></text><text x="980" y="422" text-anchor="end" font-family="Noto Sans CJK SC,Noto Sans SC,PingFang SC,Microsoft YaHei,sans-serif" font-size="13px" font-weight="400" fill="#a9c0b1"><tspan x="980" dy="0px">★ 71,985  ·  TypeScript</tspan></text><rect x="64" y="506" width="952" height="110" rx="18" fill="#214f3a" opacity=".9"/><text x="88" y="548" text-anchor="start" font-family="Noto Sans CJK SC,Noto Sans SC,PingFang SC,Microsoft YaHei,sans-serif" font-size="36px" font-weight="760" fill="#82e4ad"><tspan x="88" dy="0px">03</tspan></text><text x="170" y="540" text-anchor="start" font-family="Noto Sans CJK SC,Noto Sans SC,PingFang SC,Microsoft YaHei,sans-serif" font-size="22px" font-weight="700" fill="#f4f7f2"><tspan x="170" dy="0px">shiyu-coder/Kronos</tspan></text><text x="170" y="582" text-anchor="start" font-family="Noto Sans CJK SC,Noto Sans SC,PingFang SC,Microsoft YaHei,sans-serif" font-size="15px" font-weight="400" fill="#b9d0c1"><tspan x="170" dy="0px">Kronos 是一个针对金融市场的语言基础模型，专注于理解和处理金融领域的文本与数据。</tspan></text><text x="980" y="542" text-anchor="end" font-family="Noto Sans CJK SC,Noto Sans SC,PingFang SC,Microsoft YaHei,sans-serif" font-size="13px" font-weight="400" fill="#a9c0b1"><tspan x="980" dy="0px">★ 33,179  ·  Python</tspan></text><rect x="64" y="626" width="952" height="110" rx="18" fill="#214f3a" opacity=".9"/><text x="88" y="668" text-anchor="start" font-family="Noto Sans CJK SC,Noto Sans SC,PingFang SC,Microsoft YaHei,sans-serif" font-size="36px" font-weight="760" fill="#82e4ad"><tspan x="88" dy="0px">04</tspan></text><text x="170" y="660" text-anchor="start" font-family="Noto Sans CJK SC,Noto Sans SC,PingFang SC,Microsoft YaHei,sans-serif" font-size="22px" font-weight="700" fill="#f4f7f2"><tspan x="170" dy="0px">Pumpkin-MC/Pumpkin</tspan></text><text x="170" y="702" text-anchor="start" font-family="Noto Sans CJK SC,Noto Sans SC,PingFang SC,Microsoft YaHei,sans-serif" font-size="15px" font-weight="400" fill="#b9d0c1"><tspan x="170" dy="0px">Pumpkin 是一个帮助用户快速、高效地托管 Minecraft 服务器的开源项目。</tspan></text><text x="980" y="662" text-anchor="end" font-family="Noto Sans CJK SC,Noto Sans SC,PingFang SC,Microsoft YaHei,sans-serif" font-size="13px" font-weight="400" fill="#a9c0b1"><tspan x="980" dy="0px">★ 9,009  ·  Rust</tspan></text><rect x="64" y="746" width="952" height="110" rx="18" fill="#214f3a" opacity=".9"/><text x="88" y="788" text-anchor="start" font-family="Noto Sans CJK SC,Noto Sans SC,PingFang SC,Microsoft YaHei,sans-serif" font-size="36px" font-weight="760" fill="#82e4ad"><tspan x="88" dy="0px">05</tspan></text><text x="170" y="780" text-anchor="start" font-family="Noto Sans CJK SC,Noto Sans SC,PingFang SC,Microsoft YaHei,sans-serif" font-size="22px" font-weight="700" fill="#f4f7f2"><tspan x="170" dy="0px">citrolabs/ego-lite</tspan></text><text x="170" y="822" text-anchor="start" font-family="Noto Sans CJK SC,Noto Sans SC,PingFang SC,Microsoft YaHei,sans-serif" font-size="15px" font-weight="400" fill="#b9d0c1"><tspan x="170" dy="0px">这是一个支持用户和AI代理并行工作的浏览器，专注于提升人机协同效率。</tspan></text><text x="980" y="782" text-anchor="end" font-family="Noto Sans CJK SC,Noto Sans SC,PingFang SC,Microsoft YaHei,sans-serif" font-size="13px" font-weight="400" fill="#a9c0b1"><tspan x="980" dy="0px">★ 1,831  ·  JavaScript</tspan></text><rect x="64" y="906" width="952" height="1" fill="#527261"/><text x="64" y="954" text-anchor="start" font-family="Noto Sans CJK SC,Noto Sans SC,PingFang SC,Microsoft YaHei,sans-serif" font-size="23px" font-weight="700" fill="#9fc6ab"><tspan x="64" dy="0px">AI · 开源 · 开发者资讯</tspan></text><text x="78" y="994" text-anchor="start" font-family="Noto Sans CJK SC,Noto Sans SC,PingFang SC,Microsoft YaHei,sans-serif" font-size="17px" font-weight="600" fill="#f4f7f2"><tspan x="78" dy="0px">[开发工具] Dependabot 引入三天冷却期，延迟版本更新</tspan></text><text x="980" y="994" text-anchor="end" font-family="Noto Sans CJK SC,Noto Sans SC,PingFang SC,Microsoft YaHei,sans-serif" font-size="12px" font-weight="400" fill="#91aa9b"><tspan x="980" dy="0px">GitHub Blog</tspan></text><text x="78" y="1044" text-anchor="start" font-family="Noto Sans CJK SC,Noto Sans SC,PingFang SC,Microsoft YaHei,sans-serif" font-size="17px" font-weight="600" fill="#f4f7f2"><tspan x="78" dy="0px">[开发工具] 将Nunchaku 4-bit扩散推理集成到Diffusers</tspan></text><text x="980" y="1044" text-anchor="end" font-family="Noto Sans CJK SC,Noto Sans SC,PingFang SC,Microsoft YaHei,sans-serif" font-size="12px" font-weight="400" fill="#91aa9b"><tspan x="980" dy="0px">Hugging Face Blog</tspan></text><text x="78" y="1094" text-anchor="start" font-family="Noto Sans CJK SC,Noto Sans SC,PingFang SC,Microsoft YaHei,sans-serif" font-size="17px" font-weight="600" fill="#f4f7f2"><tspan x="78" dy="0px">[AI 模型] ChatGPT 推出健康功能，支持连接医疗记录和 Apple Health</tspan></text><text x="980" y="1094" text-anchor="end" font-family="Noto Sans CJK SC,Noto Sans SC,PingFang SC,Microsoft YaHei,sans-serif" font-size="12px" font-weight="400" fill="#91aa9b"><tspan x="980" dy="0px">OpenAI News</tspan></text><text x="78" y="1144" text-anchor="start" font-family="Noto Sans CJK SC,Noto Sans SC,PingFang SC,Microsoft YaHei,sans-serif" font-size="17px" font-weight="600" fill="#f4f7f2"><tspan x="78" dy="0px">[云原生] 我的LFX导师之旅：与kgateway共成长</tspan></text><text x="980" y="1144" text-anchor="end" font-family="Noto Sans CJK SC,Noto Sans SC,PingFang SC,Microsoft YaHei,sans-serif" font-size="12px" font-weight="400" fill="#91aa9b"><tspan x="980" dy="0px">CNCF Blog</tspan></text><rect x="64" y="1320" width="952" height="1" fill="#527261"/><text x="64" y="1360" text-anchor="start" font-family="Noto Sans CJK SC,Noto Sans SC,PingFang SC,Microsoft YaHei,sans-serif" font-size="14px" font-weight="650" fill="#82e4ad"><tspan x="64" dy="0px">#依赖更新  #安全  #冷却期</tspan></text><text x="64" y="1393" text-anchor="start" font-family="Noto Sans CJK SC,Noto Sans SC,PingFang SC,Microsoft YaHei,sans-serif" font-size="13px" font-weight="400" fill="#91aa9b"><tspan x="64" dy="0px">ibook000.github.io/GithubTrending</tspan><tspan x="64" dy="20px">数据来自公开权威来源</tspan></text><g transform="translate(918 1334) scale(2.68966)"><path class="qrline" stroke="#f4f7f2" d="M0 0.5h7m1 0h1m1 0h2m2 0h1m2 0h2m3 0h7m-29 1h1m5 0h1m1 0h2m1 0h2m3 0h4m2 0h1m5 0h1m-29 1h1m1 0h3m1 0h1m1 0h3m2 0h1m1 0h1m2 0h3m1 0h1m1 0h3m1 0h1m-29 1h1m1 0h3m1 0h1m2 0h1m3 0h1m2 0h3m3 0h1m1 0h3m1 0h1m-29 1h1m1 0h3m1 0h1m1 0h4m2 0h1m1 0h1m1 0h2m2 0h1m1 0h3m1 0h1m-29 1h1m5 0h1m2 0h1m1 0h1m2 0h1m1 0h1m5 0h1m5 0h1m-29 1h7m1 0h1m1 0h1m1 0h1m1 0h1m1 0h1m1 0h1m1 0h1m1 0h7m-18 1h5m2 0h3m-21 1h1m2 0h6m5 0h2m1 0h1m3 0h1m2 0h1m1 0h3m-29 1h2m2 0h2m2 0h1m1 0h1m2 0h3m1 0h3m3 0h2m1 0h2m-26 1h3m1 0h1m2 0h1m1 0h1m2 0h2m1 0h2m1 0h3m3 0h1m-27 1h1m1 0h4m1 0h3m1 0h1m2 0h1m2 0h1m2 0h2m3 0h1m2 0h1m-25 1h1m1 0h1m4 0h1m3 0h1m3 0h1m1 0h3m4 0h1m-29 1h1m1 0h1m1 0h2m1 0h1m1 0h1m1 0h1m2 0h1m1 0h3m2 0h8m-27 1h1m2 0h2m1 0h1m2 0h2m1 0h4m1 0h5m2 0h1m1 0h1m-29 1h1m1 0h3m2 0h1m1 0h3m2 0h3m3 0h1m1 0h2m2 0h1m1 0h1m-29 1h2m1 0h1m2 0h1m1 0h1m4 0h1m1 0h1m2 0h4m1 0h1m1 0h1m-26 1h2m2 0h1m2 0h3m1 0h2m2 0h1m2 0h4m2 0h1m1 0h2m-28 1h2m1 0h7m1 0h2m2 0h1m3 0h1m1 0h3m1 0h1m2 0h1m-29 1h3m1 0h1m3 0h2m3 0h1m2 0h1m7 0h3m-27 1h2m2 0h1m1 0h1m2 0h2m4 0h1m3 0h9m-20 1h2m3 0h3m2 0h1m1 0h1m3 0h2m-26 1h7m1 0h2m2 0h2m1 0h1m3 0h2m1 0h1m1 0h2m-26 1h1m5 0h1m1 0h5m1 0h1m1 0h2m1 0h2m3 0h1m-25 1h1m1 0h3m1 0h1m1 0h1m3 0h3m1 0h1m2 0h7m1 0h1m-28 1h1m1 0h3m1 0h1m1 0h1m1 0h2m1 0h7m8 0h1m-29 1h1m1 0h3m1 0h1m4 0h6m1 0h1m1 0h1m2 0h2m1 0h3m-29 1h1m5 0h1m2 0h2m1 0h3m7 0h5m1 0h1m-29 1h7m1 0h3m1 0h1m2 0h2m3 0h2m1 0h1m2 0h1"/></g></svg>