<svg xmlns="http://www.w3.org/2000/svg" width="1080" height="1080" viewBox="0 0 1080 1080"><defs><linearGradient id="bg" x1="0" y1="0" x2="1" y2="1"><stop stop-color="#0b1813"/><stop offset="1" stop-color="#153c2b"/></linearGradient></defs><rect width="1080" height="1080" rx="40" fill="url(#bg)"/><circle cx="1010" cy="80" r="180" fill="#73d69f" opacity=".10"/><text x="62" y="70" text-anchor="start" font-family="Noto Sans CJK SC,Noto Sans SC,PingFang SC,Microsoft YaHei,sans-serif" font-size="30px" font-weight="760" fill="#f4f7f2"><tspan x="62" dy="0px">GITHUB 趋势雷达</tspan><tspan x="62" dy="42px">今日开源趋势</tspan></text><text x="62" y="160" text-anchor="start" font-family="Noto Sans CJK SC,Noto Sans SC,PingFang SC,Microsoft YaHei,sans-serif" font-size="18px" font-weight="400" fill="#a9c0b1"><tspan x="62" dy="0px">2026-07-24</tspan></text><rect x="62" y="195" width="956" height="1" fill="#527261"/><rect x="62" y="220" width="956" height="120" rx="18" fill="#214f3a" opacity=".9"/><text x="88" y="263" text-anchor="start" font-family="Noto Sans CJK SC,Noto Sans SC,PingFang SC,Microsoft YaHei,sans-serif" font-size="38px" font-weight="760" fill="#82e4ad"><tspan x="88" dy="0px">01</tspan></text><text x="175" y="255" text-anchor="start" font-family="Noto Sans CJK SC,Noto Sans SC,PingFang SC,Microsoft YaHei,sans-serif" font-size="23px" font-weight="700" fill="#f4f7f2"><tspan x="175" dy="0px">block/buzz</tspan></text><text x="175" y="299" text-anchor="start" font-family="Noto Sans CJK SC,Noto Sans SC,PingFang SC,Microsoft YaHei,sans-serif" font-size="15px" font-weight="400" fill="#b9d0c1"><tspan x="175" dy="0px">一个基于蜂群思维理念的集体智能通信平台。</tspan></text><rect x="62" y="352" width="956" height="120" rx="18" fill="#214f3a" opacity=".9"/><text x="88" y="395" text-anchor="start" font-family="Noto Sans CJK SC,Noto Sans SC,PingFang SC,Microsoft YaHei,sans-serif" font-size="38px" font-weight="760" fill="#82e4ad"><tspan x="88" dy="0px">02</tspan></text><text x="175" y="387" text-anchor="start" font-family="Noto Sans CJK SC,Noto Sans SC,PingFang SC,Microsoft YaHei,sans-serif" font-size="23px" font-weight="700" fill="#f4f7f2"><tspan x="175" dy="0px">koala73/worldmonitor</tspan></text><text x="175" y="431" text-anchor="start" font-family="Noto Sans CJK SC,Noto Sans SC,PingFang SC,Microsoft YaHei,sans-serif" font-size="15px" font-weight="400" fill="#b9d0c1"><tspan x="175" dy="0px">一个整合了AI新闻聚合、地缘政治监控和基础设施追踪的实时全球情报态势感知仪表盘。</tspan></text><rect x="62" y="484" width="956" height="120" rx="18" fill="#214f3a" opacity=".9"/><text x="88" y="527" text-anchor="start" font-family="Noto Sans CJK SC,Noto Sans SC,PingFang SC,Microsoft YaHei,sans-serif" font-size="38px" font-weight="760" fill="#82e4ad"><tspan x="88" dy="0px">03</tspan></text><text x="175" y="519" text-anchor="start" font-family="Noto Sans CJK SC,Noto Sans SC,PingFang SC,Microsoft YaHei,sans-serif" font-size="23px" font-weight="700" fill="#f4f7f2"><tspan x="175" dy="0px">shiyu-coder/Kronos</tspan></text><text x="175" y="563" text-anchor="start" font-family="Noto Sans CJK SC,Noto Sans SC,PingFang SC,Microsoft YaHei,sans-serif" font-size="15px" font-weight="400" fill="#b9d0c1"><tspan x="175" dy="0px">Kronos 是一个针对金融市场的语言基础模型，专注于理解和处理金融领域的文本与数据。</tspan></text><rect x="62" y="651" width="956" height="1" fill="#527261"/><text x="62" y="699" text-anchor="start" font-family="Noto Sans CJK SC,Noto Sans SC,PingFang SC,Microsoft YaHei,sans-serif" font-size="23px" font-weight="700" fill="#9fc6ab"><tspan x="62" dy="0px">今日资讯</tspan></text><text x="76" y="739" text-anchor="start" font-family="Noto Sans CJK SC,Noto Sans SC,PingFang SC,Microsoft YaHei,sans-serif" font-size="17px" font-weight="600" fill="#f4f7f2"><tspan x="76" dy="0px">[开发工具] Dependabot 引入三天冷却期，延迟版本更新</tspan></text><text x="76" y="793" text-anchor="start" font-family="Noto Sans CJK SC,Noto Sans SC,PingFang SC,Microsoft YaHei,sans-serif" font-size="17px" font-weight="600" fill="#f4f7f2"><tspan x="76" dy="0px">[开发工具] 将Nunchaku 4-bit扩散推理集成到Diffusers</tspan></text><text x="76" y="847" text-anchor="start" font-family="Noto Sans CJK SC,Noto Sans SC,PingFang SC,Microsoft YaHei,sans-serif" font-size="17px" font-weight="600" fill="#f4f7f2"><tspan x="76" dy="0px">[AI 模型] ChatGPT 推出健康功能，支持连接医疗记录和 Apple Health</tspan></text><rect x="62" y="956" width="956" height="1" fill="#527261"/><text x="62" y="995" text-anchor="start" font-family="Noto Sans CJK SC,Noto Sans SC,PingFang SC,Microsoft YaHei,sans-serif" font-size="14px" font-weight="650" fill="#82e4ad"><tspan x="62" dy="0px">#依赖更新  #安全  #冷却期</tspan></text><text x="62" y="1038" text-anchor="start" font-family="Noto Sans CJK SC,Noto Sans SC,PingFang SC,Microsoft YaHei,sans-serif" font-size="13px" font-weight="400" fill="#91aa9b"><tspan x="62" dy="0px">ibook000.github.io/GithubTrending</tspan></text><g transform="translate(912 974) scale(2.96552)"><path class="qrline" stroke="#f4f7f2" d="M0 0.5h7m1 0h1m1 0h2m2 0h1m2 0h2m3 0h7m-29 1h1m5 0h1m1 0h2m1 0h2m3 0h4m2 0h1m5 0h1m-29 1h1m1 0h3m1 0h1m1 0h3m2 0h1m1 0h1m2 0h3m1 0h1m1 0h3m1 0h1m-29 1h1m1 0h3m1 0h1m2 0h1m3 0h1m2 0h3m3 0h1m1 0h3m1 0h1m-29 1h1m1 0h3m1 0h1m1 0h4m2 0h1m1 0h1m1 0h2m2 0h1m1 0h3m1 0h1m-29 1h1m5 0h1m2 0h1m1 0h1m2 0h1m1 0h1m5 0h1m5 0h1m-29 1h7m1 0h1m1 0h1m1 0h1m1 0h1m1 0h1m1 0h1m1 0h1m1 0h7m-18 1h5m2 0h3m-21 1h1m2 0h6m5 0h2m1 0h1m3 0h1m2 0h1m1 0h3m-29 1h2m2 0h2m2 0h1m1 0h1m2 0h3m1 0h3m3 0h2m1 0h2m-26 1h3m1 0h1m2 0h1m1 0h1m2 0h2m1 0h2m1 0h3m3 0h1m-27 1h1m1 0h4m1 0h3m1 0h1m2 0h1m2 0h1m2 0h2m3 0h1m2 0h1m-25 1h1m1 0h1m4 0h1m3 0h1m3 0h1m1 0h3m4 0h1m-29 1h1m1 0h1m1 0h2m1 0h1m1 0h1m1 0h1m2 0h1m1 0h3m2 0h8m-27 1h1m2 0h2m1 0h1m2 0h2m1 0h4m1 0h5m2 0h1m1 0h1m-29 1h1m1 0h3m2 0h1m1 0h3m2 0h3m3 0h1m1 0h2m2 0h1m1 0h1m-29 1h2m1 0h1m2 0h1m1 0h1m4 0h1m1 0h1m2 0h4m1 0h1m1 0h1m-26 1h2m2 0h1m2 0h3m1 0h2m2 0h1m2 0h4m2 0h1m1 0h2m-28 1h2m1 0h7m1 0h2m2 0h1m3 0h1m1 0h3m1 0h1m2 0h1m-29 1h3m1 0h1m3 0h2m3 0h1m2 0h1m7 0h3m-27 1h2m2 0h1m1 0h1m2 0h2m4 0h1m3 0h9m-20 1h2m3 0h3m2 0h1m1 0h1m3 0h2m-26 1h7m1 0h2m2 0h2m1 0h1m3 0h2m1 0h1m1 0h2m-26 1h1m5 0h1m1 0h5m1 0h1m1 0h2m1 0h2m3 0h1m-25 1h1m1 0h3m1 0h1m1 0h1m3 0h3m1 0h1m2 0h7m1 0h1m-28 1h1m1 0h3m1 0h1m1 0h1m1 0h2m1 0h7m8 0h1m-29 1h1m1 0h3m1 0h1m4 0h6m1 0h1m1 0h1m2 0h2m1 0h3m-29 1h1m5 0h1m2 0h2m1 0h3m7 0h5m1 0h1m-29 1h7m1 0h3m1 0h1m2 0h2m3 0h2m1 0h1m2 0h1"/></g></svg>